<?xml version="1.0" encoding="utf-8"?>
<!-- Generator: Adobe Illustrator 23.0.6, SVG Export Plug-In . SVG Version: 6.00 Build 0)  -->
<svg version="1.1" id="Capa_1" xmlns="http://www.w3.org/2000/svg" xmlns:xlink="http://www.w3.org/1999/xlink" x="0px" y="0px"
	 viewBox="0 0 1000 1000" style="enable-background:new 0 0 1000 1000;" xml:space="preserve">
<style type="text/css">
	.st0{clip-path:url(#SVGID_2_);fill:#DCD17B;}
	.st1{clip-path:url(#SVGID_2_);fill:#82C8B5;}
	.st2{clip-path:url(#SVGID_2_);fill:#F0B827;}
	.st3{clip-path:url(#SVGID_2_);fill:#DCE9BA;}
	.st4{clip-path:url(#SVGID_2_);fill:#116F57;}
	.st5{clip-path:url(#SVGID_2_);fill:#ED6B7D;}
	.st6{clip-path:url(#SVGID_2_);fill:#FFFFFF;}
	.st7{fill:#116F57;}
	.st8{font-family:'Veritas-Regular';}
	.st9{font-size:72.9822px;}
	.st10{letter-spacing:-2.76;}
	.st11{fill:#ED6B7D;}
	.st12{font-size:41.4062px;}
	.st13{letter-spacing:-1.84;}
	.st14{font-size:123.2757px;}
	.st15{letter-spacing:-5.52;}
	.st16{font-size:41.4061px;}
	.st17{font-size:19.7505px;}
	.st18{letter-spacing:-0.92;}
	.st19{fill:#DCE9BA;}
	.st20{font-size:46.106px;}
	.st21{font-size:46.1058px;}
	.st22{fill:#AD441C;}
	.st23{font-size:57.3904px;}
	.st24{font-size:46.1059px;}
	.st25{font-size:46.1062px;}
	.st26{font-size:38.2935px;}
	.st27{font-size:123.2755px;}
</style>
<g>
	<g>
		<defs>
			<path id="SVGID_1_" d="M37.72,504.07c0,261.87,212.29,474.16,474.16,474.16s474.16-212.29,474.16-474.16
				c0-261.87-212.29-474.16-474.16-474.16S37.72,242.2,37.72,504.07"/>
		</defs>
		<clipPath id="SVGID_2_">
			<use xlink:href="#SVGID_1_"  style="overflow:visible;"/>
		</clipPath>
		<polygon class="st0" points="510.14,503.29 26.99,503.29 45.07,360.08 96.42,263.89 		"/>
		<polygon class="st1" points="510.14,503.29 269.29,83.07 154.29,162.63 96.42,263.89 		"/>
		<polygon class="st2" points="510.14,503.29 269.29,83.07 377.06,25.21 511.58,10.02 		"/>
		<polygon class="st3" points="510.14,503.29 763.28,67.16 638.88,24.48 511.58,10.02 		"/>
		<polygon class="st4" points="510.14,503.29 763.28,67.16 820.42,104.04 941.21,256.65 		"/>
		<polygon class="st5" points="510.14,503.29 998.35,503.29 998.35,365.14 941.21,256.65 		"/>
		<polygon class="st0" points="510.3,503.29 993.44,503.29 975.36,646.5 924.01,742.69 		"/>
		<polygon class="st1" points="510.3,503.29 751.15,923.51 866.15,843.95 924.01,742.69 		"/>
		<polygon class="st2" points="510.3,503.29 751.15,923.51 643.38,981.37 508.85,996.56 		"/>
		<polygon class="st3" points="510.3,503.29 257.15,939.42 381.55,982.1 508.85,996.56 		"/>
		<polygon class="st4" points="510.3,503.29 257.15,939.42 200.01,902.54 79.23,749.93 		"/>
		<polygon class="st5" points="510.3,503.29 22.09,503.29 22.09,641.43 79.23,749.93 		"/>
		<path class="st6" d="M534.6,503.29c0,12.29-9.96,22.26-22.26,22.26c-12.29,0-22.26-9.97-22.26-22.26
			c0-12.29,9.97-22.26,22.26-22.26C524.63,481.03,534.6,491,534.6,503.29"/>
	</g>
	<text transform="matrix(0.2845 -1.0487 0.9651 0.2618 571.9509 385.0028)"><tspan x="0" y="0" class="st7 st8 st9 st10">B</tspan><tspan x="29.05" y="0" class="st7 st8 st9 st10">OS</tspan><tspan x="87.8" y="0" class="st7 st8 st9 st10">S</tspan><tspan x="118.52" y="0" class="st7 st8 st9 st10">A CO</tspan><tspan x="223.25" y="0" class="st7 st8 st9 st10">T</tspan><tspan x="254.19" y="0" class="st7 st8 st9 st10">Ó</tspan><tspan x="282.14" y="0" class="st7 st8 st9"> </tspan></text>
	<text transform="matrix(-0.2212 1.0638 -0.9791 -0.2036 465.9436 615.8279)"><tspan x="0" y="0" class="st11 st8 st12 st13">VA</tspan><tspan x="33.99" y="0" class="st11 st8 st12 st13">L DTE</tspan><tspan x="115.93" y="0" class="st11 st8 st12">.</tspan></text>
	<text transform="matrix(-0.3099 1.0414 -0.9585 -0.2852 417.2495 753.3619)"><tspan x="0" y="0" class="st11 st8 st14 st15">15</tspan><tspan x="90.24" y="0" class="st11 st8 st14">%</tspan></text>
	<text transform="matrix(1.0578 0.2481 -0.2284 0.9736 623.6504 552.5136)"><tspan x="0" y="0" class="st7 st8 st16 st13">V</tspan><tspan x="16.27" y="0" class="st7 st8 st16 st13">AL D</tspan><tspan x="81.82" y="0" class="st7 st8 st16 st13">T</tspan><tspan x="99.37" y="0" class="st7 st8 st16 st13">E</tspan><tspan x="115.93" y="0" class="st7 st8 st16">.</tspan></text>
	<text transform="matrix(1.029 0.349 -0.3212 0.947 772.1588 634.3732)"><tspan x="0" y="0" class="st11 st8 st17 st18">(</tspan><tspan x="4.15" y="0" class="st11 st8 st17 st18">PR</tspan><tspan x="25.81" y="0" class="st11 st8 st17 st18">Ò</tspan><tspan x="33.34" y="0" class="st11 st8 st17 st18">XI</tspan><tspan x="45.78" y="0" class="st11 st8 st17 st18">MA</tspan><tspan x="68.59" y="0" class="st11 st8 st17 st18"> CO</tspan><tspan x="88.46" y="0" class="st11 st8 st17 st18">M</tspan><tspan x="102.82" y="0" class="st11 st8 st17 st18">PR</tspan><tspan x="124.49" y="0" class="st11 st8 st17 st18">A</tspan><tspan x="132.94" y="0" class="st11 st8 st17">)</tspan></text>
	<text transform="matrix(1.0564 -0.2541 0.2338 0.9723 634.4562 483.1388)"><tspan x="0" y="0" class="st19 st8 st20 st13">PRODUCTE </tspan><tspan x="176.44" y="0" class="st19 st8 st20 st13">G</tspan><tspan x="193.69" y="0" class="st19 st8 st20 st13">R</tspan><tspan x="213.79" y="0" class="st19 st8 st20 st13">AT</tspan><tspan x="253.07" y="0" class="st19 st8 st20 st13">I</tspan><tspan x="260.35" y="0" class="st19 st8 st20">S</tspan></text>
	<text transform="matrix(0.7874 -0.7488 0.6891 0.7246 607.993 424.6704)"><tspan x="0" y="0" class="st19 st8 st20 st13">PRODUC</tspan><tspan x="126.83" y="0" class="st19 st8 st20 st13">T</tspan><tspan x="146.38" y="0" class="st19 st8 st20 st13">E GR</tspan><tspan x="213.79" y="0" class="st19 st8 st20 st13">AT</tspan><tspan x="253.07" y="0" class="st19 st8 st20 st13">I</tspan><tspan x="260.36" y="0" class="st19 st8 st20">S</tspan></text>
	<text transform="matrix(-0.2395 -1.0598 0.9754 -0.2204 493.8396 380.9103)"><tspan x="0" y="0" class="st19 st8 st21 st13">PRODUCTE GRA</tspan><tspan x="233.61" y="0" class="st19 st8 st21 st13">T</tspan><tspan x="253.16" y="0" class="st19 st8 st21 st13">I</tspan><tspan x="260.45" y="0" class="st19 st8 st21">S</tspan></text>
	<text transform="matrix(-0.747 -0.7891 0.7262 -0.6875 433.9663 407.5006)"><tspan x="0" y="0" class="st19 st8 st21 st13">PRODUC</tspan><tspan x="126.83" y="0" class="st19 st8 st21 st13">T</tspan><tspan x="146.38" y="0" class="st19 st8 st21 st13">E </tspan><tspan x="176.4" y="0" class="st19 st8 st21 st13">G</tspan><tspan x="193.64" y="0" class="st19 st8 st21 st13">R</tspan><tspan x="213.74" y="0" class="st19 st8 st21 st13">AT</tspan><tspan x="253.02" y="0" class="st19 st8 st21 st13">I</tspan><tspan x="260.31" y="0" class="st19 st8 st21">S</tspan></text>
	<text transform="matrix(-1.0582 -0.2466 0.227 -0.9739 397.2694 451.4221)"><tspan x="0" y="0" class="st22 st8 st23 st10">BONO </tspan><tspan x="104.39" y="0" class="st22 st8 st23 st10">A</tspan><tspan x="128.95" y="0" class="st22 st8 st23 st10">R</tspan><tspan x="153.98" y="0" class="st22 st8 st23 st10">T</tspan><tspan x="178.31" y="0" class="st22 st8 st23 st10">E</tspan><tspan x="201.26" y="0" class="st22 st8 st23 st10">S</tspan><tspan x="225.43" y="0" class="st22 st8 st23 st10">A</tspan><tspan x="250.05" y="0" class="st22 st8 st23 st10">N</tspan><tspan x="273.12" y="0" class="st22 st8 st23">A</tspan></text>
	<text transform="matrix(-1.0582 0.2468 -0.2271 -0.9739 390.0961 522.5856)"><tspan x="0" y="0" class="st19 st8 st24 st13">PRODUCTE </tspan><tspan x="176.44" y="0" class="st19 st8 st24 st13">G</tspan><tspan x="193.69" y="0" class="st19 st8 st24 st13">R</tspan><tspan x="213.79" y="0" class="st19 st8 st24 st13">AT</tspan><tspan x="253.07" y="0" class="st19 st8 st24 st13">I</tspan><tspan x="260.35" y="0" class="st19 st8 st24">S</tspan></text>
	<text transform="matrix(-0.8157 0.7178 -0.6606 -0.7507 413.697 578.1366)"><tspan x="0" y="0" class="st19 st8 st25 st13">PRODUCTE GR</tspan><tspan x="213.84" y="0" class="st19 st8 st25 st13">AT</tspan><tspan x="253.12" y="0" class="st19 st8 st25 st13">I</tspan><tspan x="260.4" y="0" class="st19 st8 st25">S</tspan></text>
	<text transform="matrix(0.2542 1.0564 -0.9723 0.2339 530.4797 623.4137)"><tspan x="0" y="0" class="st19 st8 st20 st13">PRODUCTE </tspan><tspan x="176.44" y="0" class="st19 st8 st20 st13">G</tspan><tspan x="193.69" y="0" class="st19 st8 st20 st13">R</tspan><tspan x="213.79" y="0" class="st19 st8 st20 st13">AT</tspan><tspan x="253.07" y="0" class="st19 st8 st20 st13">I</tspan><tspan x="260.35" y="0" class="st19 st8 st20">S</tspan></text>
	<text transform="matrix(0.7235 0.8107 -0.7461 0.6659 585.8177 599.3387)"><tspan x="0" y="0" class="st19 st8 st20 st13">PRODUC</tspan><tspan x="126.83" y="0" class="st19 st8 st20 st13">T</tspan><tspan x="146.38" y="0" class="st19 st8 st20 st13">E </tspan><tspan x="176.4" y="0" class="st19 st8 st20 st13">G</tspan><tspan x="193.64" y="0" class="st19 st8 st20 st13">R</tspan><tspan x="213.74" y="0" class="st19 st8 st20 st13">AT</tspan><tspan x="253.02" y="0" class="st19 st8 st20 st13">I</tspan><tspan x="260.31" y="0" class="st19 st8 st20">S</tspan></text>
	<text transform="matrix(0.2874 -1.0479 0.9644 0.2645 657.4771 206.6853)"><tspan x="0" y="0" class="st7 st8 st26 st13">V</tspan><tspan x="15.05" y="0" class="st7 st8 st26 st13">ERI</tspan><tspan x="53.11" y="0" class="st7 st8 st26 st13">T</tspan><tspan x="69.35" y="0" class="st7 st8 st26 st13">A</tspan><tspan x="85.78" y="0" class="st7 st8 st26">S</tspan></text>
	<text transform="matrix(1.0333 0.3362 -0.3094 0.9509 759.9203 604.6767)"><tspan x="0" y="0" class="st7 st8 st27 st15">1</tspan><tspan x="35.75" y="0" class="st7 st8 st27 st15">5</tspan><tspan x="90.11" y="0" class="st7 st8 st27">%</tspan></text>
	<text transform="matrix(-0.3228 1.0375 -0.9549 -0.2971 387.9123 766.3685)"><tspan x="0" y="0" class="st7 st8 st17 st18">(PR</tspan><tspan x="25.83" y="0" class="st7 st8 st17 st18">Ò</tspan><tspan x="33.36" y="0" class="st7 st8 st17 st18">XIMA CO</tspan><tspan x="88.52" y="0" class="st7 st8 st17 st18">M</tspan><tspan x="102.88" y="0" class="st7 st8 st17 st18">PRA</tspan><tspan x="133.02" y="0" class="st7 st8 st17">)</tspan></text>
	<g>
		<defs>
			<rect id="SVGID_3_" x="-75.45" y="-149.35" width="1150.9" height="1298.69"/>
		</defs>
		<clipPath id="SVGID_4_">
			<use xlink:href="#SVGID_3_"  style="overflow:visible;"/>
		</clipPath>
	</g>
</g>
</svg>
